<svg viewBox="0 0 14 4" fill="none" xmlns="http://www.w3.org/2000/svg" id="ellipsis-horizontal">
    <path
        d="M0.75 2C0.75 1.80109 0.829018 1.61032 0.96967 1.46967C1.11032 1.32902 1.30109 1.25 1.5 1.25C1.69891 1.25 1.88968 1.32902 2.03033 1.46967C2.17098 1.61032 2.25 1.80109 2.25 2C2.25 2.19891 2.17098 2.38968 2.03033 2.53033C1.88968 2.67098 1.69891 2.75 1.5 2.75C1.30109 2.75 1.11032 2.67098 0.96967 2.53033C0.829018 2.38968 0.75 2.19891 0.75 2ZM6.25 2C6.25 1.80109 6.32902 1.61032 6.46967 1.46967C6.61032 1.32902 6.80109 1.25 7 1.25C7.19891 1.25 7.38968 1.32902 7.53033 1.46967C7.67098 1.61032 7.75 1.80109 7.75 2C7.75 2.19891 7.67098 2.38968 7.53033 2.53033C7.38968 2.67098 7.19891 2.75 7 2.75C6.80109 2.75 6.61032 2.67098 6.46967 2.53033C6.32902 2.38968 6.25 2.19891 6.25 2ZM11.9697 1.46967C12.1103 1.32902 12.3011 1.25 12.5 1.25C12.6989 1.25 12.8897 1.32902 13.0303 1.46967C13.171 1.61032 13.25 1.80109 13.25 2C13.25 2.19891 13.171 2.38968 13.0303 2.53033C12.8897 2.67098 12.6989 2.75 12.5 2.75C12.3011 2.75 12.1103 2.67098 11.9697 2.53033C11.829 2.38968 11.75 2.19891 11.75 2C11.75 1.80109 11.829 1.61032 11.9697 1.46967Z"
        stroke-width="1.5" />
</svg>
    